<svg width="128" height="160" xmlns="http://www.w3.org/2000/svg">
 <title>Artboard 44</title>

 <g>
  <title>background</title>
  <rect x="-1" y="-1" width="582" height="402" id="canvas_background" fill="none"/>
 </g>
 <g>
  <title>Layer 1</title>
  <circle class="cls-1" cx="47.03888" cy="46.80331" r="46" id="svg_1" fill="#2a3f54" stroke="#2a3f54" stroke-linecap="round" stroke-linejoin="round" stroke-width="NaN"/>
  <path d="m47.03888,0.80331a46,46 0 1 0 46,46a46,46 0 0 0 -46,-46zm20,50l-16,0l0,15.99999a4,4 0 0 1 -8,0l0,-16l-16,0a4,4 0 0 1 0,-8l16,0l0,-16a4,4 0 0 1 8,0l0,16l16,0a4,4 0 0 1 0,8l0,0.00001z" id="svg_2" fill="#f9fbfc"/>
 </g>
</svg>