<svg width="128" height="160" xmlns="http://www.w3.org/2000/svg">

 <title>Artboard 44</title>
 <g>
  <title>background</title>
  <rect fill="none" id="canvas_background" height="402" width="582" y="-1" x="-1"/>
 </g>
 <g>
  <title>Layer 1</title>
  <circle stroke-width="NaN" stroke-linejoin="round" stroke-linecap="round" stroke="#2a3f54" fill="none" id="svg_1" r="46" cy="46.803305" cx="47.038876" class="cls-1"/>
  <path fill="#2a3f54" id="svg_2" d="m47.038876,0.803305a46,46 0 1 0 46,46a46,46 0 0 0 -46,-46zm20,50l-16,0l0,16a4,4 0 0 1 -8,0l0,-16l-16,0a4,4 0 0 1 0,-8l16,0l0,-16a4,4 0 0 1 8,0l0,16l16,0a4,4 0 0 1 0,8z"/>
 </g>
</svg>