<svg width="512" height="640" xmlns="http://www.w3.org/2000/svg">

 <g>
  <title>background</title>
  <rect fill="none" id="canvas_background" height="402" width="582" y="-1" x="-1"/>
 </g>
 <g>
  <title>Layer 1</title>
  <path fill="#e74c3c" id="svg_1" d="m256,2c-140.3,0 -254,113.7 -254,254s113.7,254 254,254c140.3,0 254,-113.7 254,-254s-113.7,-254 -254,-254zm119.6,337.6c9.9,9.9 9.9,26 0,35.9c-5,5 -21.1,14.9 -35.9,0l-83.7,-83.6l-83.6,83.6c-5,5 -20.2,15.7 -35.9,0c-9.9,-9.9 -9.9,-26 0,-35.9l83.6,-83.6l-83.6,-83.6c-9.9,-9.9 -9.9,-26 0,-35.9c9.9,-9.9 26,-9.9 35.9,0l83.6,83.6l83.6,-83.6c9.9,-9.9 26,-9.9 35.9,0c9.9,9.9 9.9,26 0,35.9l-83.6,83.6l83.7,83.6z"/>
 </g>
</svg>