<svg width="100.00000000000001" height="125" xmlns="http://www.w3.org/2000/svg">

 <g>
  <title>background</title>
  <rect fill="none" id="canvas_background" height="402" width="582" y="-1" x="-1"/>
 </g>
 <g>
  <title>Layer 1</title>
  <polygon fill="#ecf0f1" id="svg_1" points="27.712,37.592 25.062,34.991 15.729,44.282 12.034,40.602 9.383,43.204 15.729,49.522 "/>
  <polygon fill="#ecf0f1" id="svg_2" points="90.712,69.592 88.062,66.991 78.729,76.282 75.034,72.602 72.383,75.204 78.729,81.522 "/>
  <path fill="#ecf0f1" id="svg_3" d="m100,44.024l0,-36.839l-36.96,0l0,15.667l-13.759,0l0,18.711l-12.276,0l0,-16.965l-37.005,0l0,36.839l37.005,0l0,-15.398l12.275,0l0,32.408l13.76,0l0,14.369l36.96,0l0,-36.84l-36.96,0l0,17.994l-9.263,0l0,-46.642l9.263,0l0,16.696l36.96,0zm-32.464,-32.363l27.968,0l0,27.887l-27.968,0l0,-27.887zm-35.027,45.299l-28.013,0l0,-27.886l28.013,0l0,27.886zm35.027,3.492l27.968,0l0,27.887l-27.968,0l0,-27.887z"/>
  <polygon fill="#ecf0f1" id="svg_4" points="76.689,31.747 81.025,27.43 85.362,31.747 87.712,29.407 83.376,25.09 87.712,20.773 85.362,18.433 81.025,22.75   76.689,18.433 74.338,20.773 78.675,25.09 74.338,29.407 "/>
 </g>
</svg>