<svg width="100.00000000000001" height="125" xmlns="http://www.w3.org/2000/svg">

 <g>
  <title>background</title>
  <rect fill="none" id="canvas_background" height="402" width="582" y="-1" x="-1"/>
 </g>
 <g>
  <title>Layer 1</title>
  <path id="svg_2" fill="#595670" d="m50,17.00001c6.9047,0 13.828,2.60948 19.0938,7.875c4.0862,4.08631 6.5208,9.19905 7.4374,14.5c10.456,1.69831 18.4688,10.70651 18.4688,21.62501c0,12.1265 -9.8735,22 -22,22l-49,0c-10.4914,0 -19,-8.5086 -19,-19c0,-10.2137 8.0804,-18.47224 18.1875,-18.90624c-0.2925,-7.27678 2.2056,-14.67433 7.75,-20.21876c5.2624,-5.26256 12.1578,-7.875 19.0625,-7.875l0,-0.00001zm0,4c-5.8915,0 -11.7496,2.2183 -16.25,6.71875c-5.2015,5.20148 -7.3732,12.26514 -6.5625,19.03122a2.0002,2.0002 0 0 1 -2,2.25004l-1.1875,0c-8.3446,0 -15,6.6554 -15,15c0,8.3446 6.6554,15 15,15l49,0c9.9647,0 18,-8.0353 18,-18c0,-9.4093 -7.1686,-17.10454 -16.3438,-17.9375a2.0002,2.0002 0 0 1 -1.8124,-1.75c-0.577,-4.97027 -2.7439,-9.77517 -6.5626,-13.59375c-4.4974,-4.49748 -10.3897,-6.71875 -16.2812,-6.71875l0,-0.00001zm0,20c0.5349,0.01 1.058,0.2382 1.3438,0.5l11,10.00001c0.8219,0.7154 0.8618,2.0644 0.1562,2.8438c-0.7057,0.7793 -2.0674,0.8338 -2.8438,0.125l-7.6562,-6.96884l0,21.50004c0,1.1046 -0.8952,2 -2,2c-1.1048,0 -2,-0.8954 -2,-2l0,-21.50004l-7.6562,6.96884c-0.7764,0.7088 -2.101,0.6191 -2.8438,-0.125c-0.7701,-0.7713 -0.6263,-2.1416 0.1562,-2.8438l11,-10c0.4403,-0.4023 0.813,-0.5017 1.3438,-0.5l0,-0.00001z"/>
 </g>
</svg>